<svg width="65" height="65" viewBox="0 0 65 65" fill="none" xmlns="http://www.w3.org/2000/svg">
<circle cx="32.5" cy="32.5" r="32.5" fill="#C5F4FF"/>
<g clip-path="url(#clip0)">
<path d="M48.8721 27.4242C48.6358 27.1452 48.2888 26.9843 47.9231 26.9843H44.4705L37.6901 17.7489C37.2834 17.1946 36.5052 17.0764 35.9517 17.4823C35.3978 17.889 35.2788 18.6676 35.6851 19.2211L41.3847 26.9844H23.284L28.9836 19.2211C29.3903 18.6672 29.2705 17.889 28.717 17.4823C28.1635 17.076 27.3849 17.1954 26.9782 17.7489L20.1977 26.9844H17.0773C16.7116 26.9844 16.3646 27.1453 16.1282 27.4243C15.8919 27.7033 15.7903 28.0719 15.8504 28.4326L18.9599 47.0894C19.0598 47.6888 19.5789 48.1288 20.1866 48.1288H44.8136C45.4218 48.1288 45.9404 47.6893 46.0403 47.0894L49.1498 28.4326C49.21 28.0723 49.1084 27.7033 48.8721 27.4242ZM43.7602 45.6412H21.2402L18.5454 29.472H46.455L43.7602 45.6412Z" fill="black"/>
<path d="M32.5003 32.3741C31.8133 32.3741 31.2565 32.9309 31.2565 33.6179V41.7855C31.2565 42.4725 31.8133 43.0292 32.5003 43.0292C33.1873 43.0292 33.744 42.4729 33.744 41.7854V33.6179C33.744 32.9309 33.1873 32.3741 32.5003 32.3741Z" fill="black"/>
<path d="M38.9263 32.3741C38.2393 32.3741 37.6825 32.9309 37.6825 33.6179V41.7855C37.6825 42.4725 38.2393 43.0292 38.9263 43.0292C39.6133 43.0292 40.1701 42.4729 40.17 41.7854V33.6179C40.17 32.9309 39.6133 32.3741 38.9263 32.3741Z" fill="black"/>
<path d="M26.0739 32.3741C25.387 32.3741 24.8302 32.9309 24.8302 33.6179V41.7855C24.8302 42.4725 25.387 43.0292 26.0739 43.0292C26.7609 43.0292 27.3177 42.4729 27.3177 41.7854V33.6179C27.3177 32.9309 26.7609 32.3741 26.0739 32.3741Z" fill="black"/>
</g>
<defs>
<clipPath id="clip0">
<rect width="33.3333" height="33.3333" fill="white" transform="translate(15.8335 16.0182)"/>
</clipPath>
</defs>
</svg>
